<svg width="28" height="42" viewBox="0 0 28 42" fill="none" xmlns="http://www.w3.org/2000/svg">
<path d="M20.5625 7C21.2874 7 21.875 7.58763 21.875 8.3125V10.9375C21.875 11.6624 21.2874 12.25 20.5625 12.25C19.8376 12.25 19.25 11.6624 19.25 10.9375V8.3125C19.25 7.58763 19.8376 7 20.5625 7Z" fill="#02543C"/>
<path d="M21.875 24.0625C21.875 23.3376 21.2874 22.75 20.5625 22.75C19.8376 22.75 19.25 23.3376 19.25 24.0625V26.6875C19.25 27.4124 19.8376 28 20.5625 28C21.2874 28 21.875 27.4124 21.875 26.6875V24.0625Z" fill="#02543C"/>
<path d="M0 5.25C0 2.35051 2.35051 0 5.25 0H22.75C25.6495 0 28 2.35051 28 5.25V36.75C28 39.6495 25.6495 42 22.75 42H5.25C2.3505 42 0 39.6495 0 36.75V5.25ZM5.25 3.5C4.2835 3.5 3.5 4.2835 3.5 5.25V15.8278H24.5V5.25C24.5 4.2835 23.7165 3.5 22.75 3.5H5.25ZM24.5 19.3278H3.5V36.75C3.5 37.7165 4.2835 38.5 5.25 38.5H22.75C23.7165 38.5 24.5 37.7165 24.5 36.75V19.3278Z" fill="#02543C"/>
</svg>
